<svg width="18" height="28" viewBox="0 0 18 28" fill="none" xmlns="http://www.w3.org/2000/svg">
<path d="M6.30291 14.0059L16.7776 3.53073C17.0661 3.24299 17.2247 2.85828 17.2247 2.44806C17.2247 2.03763 17.0661 1.65314 16.7776 1.36494L15.8598 0.447545C15.5718 0.158894 15.1869 0 14.7767 0C14.3665 0 13.982 0.158894 13.6938 0.447545L1.22193 12.9192C0.9326 13.2083 0.774161 13.5946 0.775299 14.0052C0.774161 14.4177 0.932373 14.8036 1.22193 15.0929L13.6822 27.5525C13.9704 27.8411 14.3548 28 14.7653 28C15.1755 28 15.56 27.8411 15.8484 27.5525L16.766 26.6351C17.3631 26.038 17.3631 25.0659 16.766 24.469L6.30291 14.0059Z" fill="#0066AE"/>
</svg>
