<svg width="54" height="54" viewBox="0 0 54 54" fill="none" xmlns="http://www.w3.org/2000/svg">
<path d="M42.7148 27.1058C39.2254 27.1058 36.3867 29.9446 36.3867 33.434C36.3867 36.9233 39.2254 39.7621 42.7148 39.7621H51.6796C51.7153 39.7621 51.7503 39.7585 51.7856 39.7567C51.8206 39.7584 51.8551 39.762 51.8905 39.762C53.0555 39.762 53.9999 38.8176 53.9999 37.6526V21.094C53.9999 18.2858 52.6196 15.7952 50.5031 14.2607L43.327 2.48832C43.0344 2.00823 42.5623 1.66483 42.0153 1.53447C41.4683 1.4039 40.8921 1.49724 40.4142 1.7936L35.1221 5.07536L32.7355 1.03655C32.4486 0.550972 31.9792 0.200605 31.4322 0.063496C30.8852 -0.0736131 30.3059 0.0142422 29.824 0.307023L9.50367 12.6565H6.32811C5.18262 12.6565 4.24743 11.7388 4.21938 10.5999C4.24743 9.46106 5.18262 8.54327 6.32811 8.54327H10.2304C11.3955 8.54327 12.3398 7.59891 12.3398 6.4339C12.3398 5.2689 11.3955 4.32453 10.2304 4.32453H6.32811C3.34356 4.32453 0.835205 6.40163 0.171914 9.18611C0.0615936 9.44197 0 9.72357 0 10.0198V10.5472V10.6526V45.5627C0 50.2152 3.78506 54.0002 8.43748 54.0002H45.5624C49.2 54.0002 52.4171 51.683 53.5676 48.2342C53.9363 47.1291 53.3392 45.9343 52.2341 45.5657C51.1292 45.1971 49.9343 45.794 49.5657 46.8991C48.9906 48.6231 47.3819 49.7815 45.5624 49.7815H8.43748C6.11127 49.7815 4.21874 47.889 4.21874 45.5627V16.5134C4.87887 16.7476 5.58878 16.8753 6.32811 16.8753H45.5624C47.8886 16.8753 49.7812 18.7678 49.7812 21.094V27.1058H42.7148ZM49.7812 35.5432H42.7148C41.5517 35.5433 40.6054 34.5971 40.6054 33.4339C40.6054 32.2707 41.5517 31.3245 42.7148 31.3245H49.7812V35.5432ZM17.6267 12.6567L30.1901 5.02147L32.4362 8.82266C32.4794 8.92655 32.5289 9.02896 32.5901 9.12768C32.636 9.20161 32.6868 9.27048 32.7399 9.33671L34.7016 12.6567H17.6267ZM39.6019 12.6565L37.2688 8.70823L40.8311 6.49919L44.5845 12.6565H39.6019Z" fill="#5CCBFF"/>
</svg>
