<?xml version="1.0" encoding="utf-8"?>
<!-- Generator: Adobe Illustrator 22.1.0, SVG Export Plug-In . SVG Version: 6.00 Build 0)  -->
<svg version="1.1" id="Слой_1" xmlns="http://www.w3.org/2000/svg" xmlns:xlink="http://www.w3.org/1999/xlink" x="0px" y="0px"
	 viewBox="0 0 60 68" style="enable-background:new 0 0 60 68;" xml:space="preserve">
<style type="text/css">
	.st0{filter:url(#ae96eeecd750ec2a83543f00c9bc789d__a);}
	.st1{fill:#FF0000;}
	.st2{fill:#FFFFFF;}
</style>
<filter  filterUnits="objectBoundingBox" height="138.5%" id="ae96eeecd750ec2a83543f00c9bc789d__a" width="143.5%" x="-21.7%" y="-15.4%">
	<feGaussianBlur  in="SourceGraphic" stdDeviation="3"></feGaussianBlur>
	<feOffset  dy="2"></feOffset>
	<feComponentTransfer>
		<feFuncA  slope=".3" type="linear"></feFuncA>
	</feComponentTransfer>
</filter>
<g>
	<g transform="translate(7 5)">
		<g class="st0">
			<path id="ae96eeecd750ec2a83543f00c9bc789d__b_2_" class="st1" d="M23.5,51.5c0,0.3-0.2,0.5-0.5,0.5c-0.3,0-0.5-0.2-0.5-0.5
				c-0.1-3.2-1.8-5.2-4.8-6.1C7.5,43,0,33.9,0,23C0,10.3,10.3,0,23,0s23,10.3,23,23c0,10.9-7.5,20-17.7,22.4
				C25.3,46.3,23.7,48.4,23.5,51.5L23.5,51.5z"/>
		</g>
		<g>
			<path id="ae96eeecd750ec2a83543f00c9bc789d__b_1_" class="st1" d="M23.5,51.5c0,0.3-0.2,0.5-0.5,0.5c-0.3,0-0.5-0.2-0.5-0.5
				c-0.1-3.2-1.8-5.2-4.8-6.1C7.5,43,0,33.9,0,23C0,10.3,10.3,0,23,0s23,10.3,23,23c0,10.9-7.5,20-17.7,22.4
				C25.3,46.3,23.7,48.4,23.5,51.5L23.5,51.5z"/>
		</g>
	</g>
	<path class="st2" d="M30,68c-2.2,0-4-1.8-4-4s1.8-4,4-4s4,1.8,4,4S32.2,68,30,68z"/>
	<path class="st1" d="M30,66c1.1,0,2-0.8,2-2s-0.8-2-2-2c0,0-0.1,0-0.1,0c-1.1,0-2,0.9-2,2C28.1,65.1,28.9,66,30,66z"/>
</g>
<ellipse class="st2" cx="30" cy="27.9" rx="4.8" ry="4.6"/>
</svg>
