<svg width="24" height="24" viewBox="0 0 24 24" fill="none" xmlns="http://www.w3.org/2000/svg">
<path d="M12.0002 0C5.38295 0 0.000152588 5.38331 0.000152588 12C0.000152588 18.6167 5.38295 24 12.0002 24C18.6174 24 24.0002 18.6167 24.0002 12C24.0002 5.38331 18.6174 0 12.0002 0ZM12.0002 20C11.4484 20 11.0002 19.5513 11.0002 19C11.0002 18.4488 11.4484 18 12.0002 18C12.5519 18 13.0001 18.4488 13.0001 19C13.0001 19.5513 12.5519 20 12.0002 20ZM13.0001 16.5C13.0001 16.7764 12.7765 17 12.5001 17H11.5001C11.2238 17 11.0001 16.7764 11.0001 16.5V4.5C11.0001 4.22363 11.2238 3.99998 11.5001 3.99998H12.5001C12.7765 3.99998 13.0001 4.22363 13.0001 4.5V16.5Z" fill="#EB5757"/>
</svg>
