<svg width="24" height="24" viewBox="0 0 24 24" fill="none" xmlns="http://www.w3.org/2000/svg">
<path d="M12.0002 0C5.38346 0 0.000152588 5.38331 0.000152588 12C0.000152588 18.6167 5.38346 24 12.0002 24C18.6168 24 24.0002 18.6167 24.0002 12C24.0002 5.38331 18.6168 0 12.0002 0ZM18.8536 8.56055L10.2072 17.207C10.0119 17.4023 9.75601 17.5 9.50017 17.5C9.24432 17.5 8.98843 17.4023 8.79315 17.207L4.14672 12.5605C3.95139 12.3653 3.95139 12.0487 4.14672 11.8534L4.85364 11.1465C5.04896 10.9512 5.36547 10.9512 5.56079 11.1465L9.50017 15.0859L17.4395 7.14647C17.6349 6.95123 17.9514 6.95123 18.1467 7.14647L18.8536 7.85344C19.0489 8.04872 19.0489 8.36531 18.8536 8.56055Z" fill="#73BC00"/>
</svg>
