<svg width="16" height="22" viewBox="0 0 16 22" fill="none" xmlns="http://www.w3.org/2000/svg">
<path d="M7.07801 0.758065C7.68087 -0.270342 8.31919 -0.234879 8.92205 0.758065C11.6881 4.87169 15.8727 11.0421 15.8727 14.1273C15.8727 16.2905 14.9861 18.2764 13.5676 19.6949C12.1491 21.1134 10.1632 22 8.00003 22C5.83683 22 3.85095 21.1134 2.43246 19.6949C1.01396 18.2764 0.127407 16.2905 0.127407 14.1273C0.127407 11.0067 4.31196 4.87169 7.07801 0.758065ZM2.32607 17.6381C2.89347 18.5601 3.7091 19.3758 4.70204 19.9432C5.16305 20.1914 5.73045 20.0495 5.97868 19.5885C6.26238 19.0921 6.08507 18.5247 5.62406 18.2764C4.91481 17.8863 4.34742 17.3189 3.92187 16.6452C3.49632 15.9714 3.24809 15.1912 3.21263 14.3756C3.17716 13.8436 2.75162 13.4536 2.21968 13.489C1.68775 13.5245 1.29766 13.95 1.33313 14.482C1.40405 15.6168 1.75867 16.6806 2.32607 17.6381Z" fill="#0066AE"/>
</svg>
