<svg width="58" height="58" viewBox="0 0 58 58" fill="none" xmlns="http://www.w3.org/2000/svg">
<g clip-path="url(#clip0)">
<path d="M29 57.5272C44.7551 57.5272 57.5271 44.7551 57.5271 29C57.5271 13.2449 44.7551 0.472824 29 0.472824C13.2448 0.472824 0.472778 13.2449 0.472778 29C0.472778 44.7551 13.2448 57.5272 29 57.5272Z" stroke="white" stroke-width="2"/>
<path d="M29.5358 32.8456C17.1037 25.6587 7.10289 30.7337 3.65649 34.1696C4.44454 39.7804 8.60541 45.5174 10.875 47.6293C13.1445 49.7413 17.0532 52.5152 21.4032 53.8391C24.6815 54.6272 31.8685 56.8652 42.3337 51.0967C50.7059 46.482 53.7236 37.637 54.1859 33.7913C51.3384 35.9242 42.4219 38.7213 29.5358 32.8456Z" fill="white"/>
<path d="M16.3673 47.2196C16.0743 46.598 15.785 45.9513 15.4992 45.2797C15.2134 44.6081 14.9419 43.9436 14.6847 43.2863C14.4275 42.6289 14.1881 42.0002 13.9666 41.4C13.7523 40.7999 13.5665 40.264 13.4093 39.7924H15.2527C15.3956 40.2211 15.5492 40.6856 15.7135 41.1857C15.885 41.6787 16.0565 42.1717 16.228 42.6647C16.4066 43.1577 16.5781 43.6292 16.7424 44.0794C16.9068 44.5295 17.0603 44.9189 17.2033 45.2476C17.339 44.9189 17.489 44.5295 17.6534 44.0794C17.8249 43.6292 17.9963 43.1577 18.1678 42.6647C18.3464 42.1717 18.5179 41.6787 18.6823 41.1857C18.8537 40.6856 19.0109 40.2211 19.1538 39.7924H20.9329C20.7686 40.264 20.5792 40.7999 20.3649 41.4C20.1505 42.0002 19.9148 42.6289 19.6575 43.2863C19.4003 43.9436 19.1288 44.6081 18.843 45.2797C18.5572 45.9513 18.2679 46.598 17.9749 47.2196H16.3673ZM23.0259 43.5006C23.0259 43.865 23.0688 44.1937 23.1545 44.4866C23.2474 44.7796 23.376 45.0332 23.5403 45.2476C23.7118 45.4548 23.919 45.6156 24.1619 45.7299C24.4048 45.8442 24.6835 45.9013 24.9979 45.9013C25.3051 45.9013 25.5802 45.8442 25.8231 45.7299C26.0732 45.6156 26.2804 45.4548 26.4447 45.2476C26.6162 45.0332 26.7448 44.7796 26.8306 44.4866C26.9234 44.1937 26.9699 43.865 26.9699 43.5006C26.9699 43.1362 26.9234 42.8076 26.8306 42.5146C26.7448 42.2146 26.6162 41.9609 26.4447 41.7537C26.2804 41.5394 26.0732 41.375 25.8231 41.2607C25.5802 41.1464 25.3051 41.0892 24.9979 41.0892C24.6835 41.0892 24.4048 41.1499 24.1619 41.2714C23.919 41.3857 23.7118 41.5501 23.5403 41.7644C23.376 41.9716 23.2474 42.2253 23.1545 42.5254C23.0688 42.8183 23.0259 43.1434 23.0259 43.5006ZM28.6954 43.5006C28.6954 44.1366 28.5989 44.6974 28.406 45.1833C28.2202 45.662 27.963 46.0657 27.6344 46.3943C27.3057 46.7159 26.9127 46.9588 26.4555 47.1231C26.0053 47.2875 25.5195 47.3696 24.9979 47.3696C24.4906 47.3696 24.0119 47.2875 23.5618 47.1231C23.1116 46.9588 22.7187 46.7159 22.3828 46.3943C22.047 46.0657 21.7827 45.662 21.5898 45.1833C21.3968 44.6974 21.3004 44.1366 21.3004 43.5006C21.3004 42.8647 21.4004 42.3074 21.6005 41.8287C21.8005 41.3428 22.0685 40.9356 22.4043 40.6069C22.7472 40.2783 23.1402 40.0318 23.5832 39.8674C24.0333 39.7031 24.5049 39.6209 24.9979 39.6209C25.5052 39.6209 25.9839 39.7031 26.434 39.8674C26.8842 40.0318 27.2771 40.2783 27.6129 40.6069C27.9488 40.9356 28.2131 41.3428 28.406 41.8287C28.5989 42.3074 28.6954 42.8647 28.6954 43.5006ZM31.761 45.8585C31.8396 45.8656 31.9289 45.8728 32.0289 45.8799C32.1361 45.8799 32.2611 45.8799 32.404 45.8799C33.24 45.8799 33.858 45.6691 34.2582 45.2476C34.6654 44.826 34.8691 44.2437 34.8691 43.5006C34.8691 42.7219 34.6761 42.1324 34.2903 41.7323C33.9045 41.3321 33.2936 41.1321 32.4576 41.1321C32.3433 41.1321 32.2254 41.1357 32.104 41.1428C31.9825 41.1428 31.8682 41.1499 31.761 41.1642V45.8585ZM36.5946 43.5006C36.5946 44.1437 36.4945 44.7046 36.2945 45.1833C36.0944 45.662 35.8086 46.0585 35.4371 46.3729C35.0727 46.6873 34.6261 46.9231 34.0974 47.0802C33.5687 47.2374 32.9756 47.316 32.3183 47.316C32.0182 47.316 31.6681 47.3017 31.268 47.2732C30.8679 47.2517 30.4749 47.2017 30.0891 47.1231V39.8889C30.4749 39.8174 30.875 39.771 31.2894 39.7496C31.711 39.721 32.0718 39.7067 32.3719 39.7067C33.0078 39.7067 33.583 39.7781 34.0974 39.921C34.619 40.0639 35.0655 40.289 35.4371 40.5962C35.8086 40.9034 36.0944 41.2964 36.2945 41.7751C36.4945 42.2538 36.5946 42.829 36.5946 43.5006ZM42.6918 47.2196C42.6133 46.9624 42.5239 46.698 42.4239 46.4265C42.331 46.155 42.2381 45.8835 42.1452 45.612H39.2515C39.1587 45.8835 39.0622 46.155 38.9621 46.4265C38.8693 46.698 38.7835 46.9624 38.7049 47.2196H36.9687C37.2474 46.4194 37.5118 45.6799 37.7618 45.0011C38.0119 44.3223 38.2548 43.6828 38.4906 43.0827C38.7336 42.4825 38.9693 41.9145 39.1979 41.3786C39.4337 40.8356 39.6767 40.3069 39.9267 39.7924H41.5236C41.7666 40.3069 42.0059 40.8356 42.2417 41.3786C42.4775 41.9145 42.7132 42.4825 42.949 43.0827C43.192 43.6828 43.4385 44.3223 43.6885 45.0011C43.9386 45.6799 44.203 46.4194 44.4816 47.2196H42.6918ZM40.6876 41.4751C40.652 41.5822 40.5984 41.7287 40.5269 41.9145C40.4555 42.1003 40.3733 42.3146 40.2804 42.5575C40.1875 42.8004 40.0839 43.0683 39.9696 43.3613C39.8624 43.6543 39.7517 43.9615 39.6373 44.283H41.7487C41.6344 43.9615 41.5236 43.6543 41.4164 43.3613C41.3093 43.0683 41.2057 42.8004 41.1056 42.5575C41.0128 42.3146 40.9306 42.1003 40.8591 41.9145C40.7877 41.7287 40.7305 41.5822 40.6876 41.4751Z" fill="#0066AE"/>
<path d="M27.3987 13.6268C27.3987 14.1859 27.2884 14.7227 27.0678 15.2376C26.8471 15.7525 26.5603 16.2526 26.2072 16.738C25.8542 17.2088 25.457 17.6648 25.0157 18.1061C24.5744 18.5474 24.1405 18.9666 23.7139 19.3638C23.4932 19.5698 23.2505 19.8051 22.9857 20.0699C22.7356 20.32 22.4929 20.5774 22.2576 20.8422C22.0222 21.107 21.8089 21.3571 21.6177 21.5924C21.4411 21.813 21.3308 21.9969 21.2867 22.144H27.8621V24.9022H17.668C17.6385 24.7403 17.6239 24.5344 17.6239 24.2844C17.6239 24.0343 17.6239 23.8577 17.6239 23.7548C17.6239 23.0487 17.7342 22.4014 17.9548 21.813C18.1902 21.2247 18.4918 20.6803 18.8595 20.1802C19.2272 19.6653 19.6392 19.1873 20.0952 18.746C20.5659 18.3047 21.0293 17.8634 21.4853 17.4221C21.8383 17.0837 22.1693 16.7675 22.4782 16.4733C22.7871 16.1643 23.0593 15.8701 23.2946 15.5907C23.53 15.2964 23.7139 15.0096 23.8462 14.7301C23.9786 14.4359 24.0448 14.1417 24.0448 13.8475C24.0448 13.2002 23.8609 12.7442 23.4932 12.4795C23.1255 12.2147 22.6694 12.0823 22.1252 12.0823C21.728 12.0823 21.3529 12.1485 20.9998 12.2809C20.6615 12.3986 20.3453 12.5457 20.051 12.7222C19.7716 12.884 19.5288 13.0532 19.3229 13.2297C19.1169 13.3915 18.9625 13.5239 18.8595 13.6268L17.2267 11.3321C17.874 10.7289 18.6242 10.2362 19.4773 9.8537C20.3453 9.45652 21.272 9.25793 22.2576 9.25793C23.1548 9.25793 23.9271 9.36088 24.5744 9.56685C25.2217 9.77281 25.7512 10.067 26.1631 10.4495C26.5897 10.8172 26.8986 11.2732 27.0898 11.8175C27.2958 12.3471 27.3987 12.9502 27.3987 13.6268ZM36.0342 13.6268C35.4605 14.3771 34.85 15.1935 34.2028 16.0761C33.5555 16.9587 33.0113 17.8634 32.5699 18.7901H36.0342V13.6268ZM39.2557 9.61098V18.7901H40.8885V21.4821H39.2557V24.9022H36.0342V21.4821H29.4367V19.077C29.7603 18.4297 30.1648 17.7015 30.6503 16.8925C31.1357 16.0687 31.6726 15.2302 32.261 14.3771C32.8641 13.5091 33.4967 12.6634 34.1586 11.8396C34.8206 11.0158 35.4826 10.2729 36.1445 9.61098H39.2557Z" fill="white"/>
</g>
<defs>
<clipPath id="clip0">
<rect width="58" height="58" rx="29" fill="white"/>
</clipPath>
</defs>
</svg>
