<svg width="90" height="90" viewBox="0 0 90 90" fill="none" xmlns="http://www.w3.org/2000/svg">
<g clip-path="url(#clip0)">
<path d="M45 89.2663C69.4476 89.2663 89.2662 69.4476 89.2662 45C89.2662 20.5524 69.4476 0.733692 45 0.733692C20.5523 0.733692 0.733627 20.5524 0.733627 45C0.733627 69.4476 20.5523 89.2663 45 89.2663Z" stroke="white" stroke-width="2"/>
<path d="M45.8314 50.9673C26.5402 39.8152 11.0217 47.6902 5.67387 53.0218C6.89671 61.7282 13.3532 70.6305 16.875 73.9075C20.3966 77.1848 26.4619 81.4891 33.2119 83.5434C38.2989 84.7664 49.4511 88.2391 65.6902 79.288C78.6816 72.1272 83.3642 58.4023 84.0816 52.4348C79.663 55.7445 65.8271 60.0848 45.8314 50.9673Z" fill="white"/>
<path d="M25.3975 73.2718C24.9429 72.3072 24.494 71.3037 24.0505 70.2616C23.607 69.2195 23.1857 68.1883 22.7866 67.1684C22.3875 66.1483 22.016 65.1727 21.6723 64.2414C21.3398 63.3102 21.0515 62.4786 20.8075 61.7468H23.668C23.8897 62.412 24.1281 63.1328 24.383 63.9088C24.6491 64.6738 24.9153 65.4388 25.1814 66.2038C25.4585 66.9688 25.7246 67.7005 25.9796 68.3991C26.2347 69.0975 26.4729 69.7017 26.6948 70.2118C26.9054 69.7017 27.1381 69.0975 27.3932 68.3991C27.6593 67.7005 27.9253 66.9688 28.1914 66.2038C28.4686 65.4388 28.7347 64.6738 28.9898 63.9088C29.2557 63.1328 29.4997 62.412 29.7214 61.7468H32.4821C32.2271 62.4786 31.9332 63.3102 31.6007 64.2414C31.268 65.1727 30.9023 66.1483 30.503 67.1684C30.1039 68.1883 29.6826 69.2195 29.2391 70.2616C28.7957 71.3037 28.3467 72.3072 27.8921 73.2718H25.3975ZM35.7299 67.5009C35.7299 68.0664 35.7964 68.5764 35.9294 69.0309C36.0736 69.4856 36.2731 69.8791 36.5281 70.2118C36.7942 70.5333 37.1157 70.7828 37.4926 70.9602C37.8695 71.1375 38.302 71.2261 38.7899 71.2261C39.2665 71.2261 39.6934 71.1375 40.0703 70.9602C40.4584 70.7828 40.7799 70.5333 41.0349 70.2118C41.301 69.8791 41.5006 69.4856 41.6337 69.0309C41.7777 68.5764 41.8499 68.0664 41.8499 67.5009C41.8499 66.9355 41.7777 66.4256 41.6337 65.9709C41.5006 65.5054 41.301 65.1117 41.0349 64.7902C40.7799 64.4577 40.4584 64.2026 40.0703 64.0252C39.6934 63.8479 39.2665 63.7591 38.7899 63.7591C38.302 63.7591 37.8695 63.8533 37.4926 64.0418C37.1157 64.2192 36.7942 64.4743 36.5281 64.8068C36.2731 65.1283 36.0736 65.522 35.9294 65.9877C35.7964 66.4422 35.7299 66.9466 35.7299 67.5009ZM44.5274 67.5009C44.5274 68.4878 44.3776 69.358 44.0783 70.112C43.79 70.8548 43.3909 71.4812 42.881 71.9911C42.3709 72.4902 41.7611 72.8671 41.0516 73.122C40.3531 73.3771 39.5992 73.5045 38.7899 73.5045C38.0027 73.5045 37.2599 73.3771 36.5614 73.122C35.8628 72.8671 35.2532 72.4902 34.7319 71.9911C34.2109 71.4812 33.8007 70.8548 33.5014 70.112C33.2019 69.358 33.0524 68.4878 33.0524 67.5009C33.0524 66.5142 33.2075 65.6494 33.518 64.9066C33.8284 64.1526 34.2442 63.5207 34.7653 63.0107C35.2974 62.5008 35.9072 62.1183 36.5946 61.8632C37.2931 61.6083 38.0249 61.4807 38.7899 61.4807C39.577 61.4807 40.3199 61.6083 41.0183 61.8632C41.7169 62.1183 42.3265 62.5008 42.8476 63.0107C43.3688 63.5207 43.779 64.1526 44.0783 64.9066C44.3776 65.6494 44.5274 66.5142 44.5274 67.5009ZM49.2843 71.1597C49.4063 71.1708 49.5449 71.1819 49.7 71.1929C49.8664 71.1929 50.0603 71.1929 50.2821 71.1929C51.5793 71.1929 52.5383 70.8658 53.1593 70.2118C53.7911 69.5576 54.1072 68.654 54.1072 67.5009C54.1072 66.2926 53.8077 65.3779 53.2091 64.757C52.6104 64.136 51.6625 63.8257 50.3652 63.8257C50.1879 63.8257 50.0049 63.8313 49.8166 63.8423C49.628 63.8423 49.4507 63.8533 49.2843 63.8755V71.1597ZM56.7847 67.5009C56.7847 68.4988 56.6294 69.3692 56.3191 70.112C56.0086 70.8548 55.5651 71.4701 54.9886 71.9579C54.4232 72.4458 53.7302 72.8117 52.9098 73.0555C52.0894 73.2994 51.169 73.4214 50.1491 73.4214C49.6834 73.4214 49.1402 73.3992 48.5193 73.355C47.8985 73.3216 47.2886 73.244 46.69 73.122V61.8966C47.2886 61.7856 47.9095 61.7136 48.5525 61.6804C49.2067 61.636 49.7666 61.6138 50.2323 61.6138C51.219 61.6138 52.1116 61.7246 52.9098 61.9464C53.7191 62.1681 54.412 62.5174 54.9886 62.9941C55.5651 63.4708 56.0086 64.0806 56.3191 64.8234C56.6294 65.5662 56.7847 66.4588 56.7847 67.5009ZM66.2459 73.2718C66.1241 72.8727 65.9854 72.4624 65.8302 72.0411C65.686 71.6198 65.5419 71.1985 65.3977 70.7772H60.9075C60.7635 71.1985 60.6138 71.6198 60.4584 72.0411C60.3144 72.4624 60.1813 72.8727 60.0593 73.2718H57.3652C57.7977 72.0301 58.208 70.8826 58.5959 69.8293C58.984 68.776 59.3609 67.7836 59.7268 66.8525C60.1039 65.9211 60.4696 65.0397 60.8243 64.2082C61.1902 63.3656 61.5673 62.5452 61.9552 61.7468H64.4332C64.8102 62.5452 65.1816 63.3656 65.5475 64.2082C65.9134 65.0397 66.2791 65.9211 66.645 66.8525C67.0221 67.7836 67.4046 68.776 67.7925 69.8293C68.1806 70.8826 68.5909 72.0301 69.0232 73.2718H66.2459ZM63.1359 64.3579C63.0807 64.5241 62.9975 64.7514 62.8866 65.0397C62.7758 65.328 62.6482 65.6606 62.5041 66.0375C62.3599 66.4144 62.1992 66.8301 62.0218 67.2848C61.8555 67.7394 61.6837 68.2161 61.5062 68.715H64.7825C64.6051 68.2161 64.4332 67.7394 64.2668 67.2848C64.1006 66.8301 63.9399 66.4144 63.7846 66.0375C63.6406 65.6606 63.513 65.328 63.4021 65.0397C63.2913 64.7514 63.2025 64.5241 63.1359 64.3579Z" fill="#0066AE"/>
<path d="M42.5152 21.145C42.5152 22.0126 42.3441 22.8456 42.0018 23.6446C41.6593 24.4435 41.2143 25.2196 40.6664 25.9728C40.1186 26.7033 39.5022 27.4109 38.8175 28.0957C38.1327 28.7804 37.4594 29.4309 36.7974 30.0473C36.455 30.3669 36.0784 30.7321 35.6675 31.143C35.2794 31.531 34.9028 31.9304 34.5377 32.3413C34.1724 32.7522 33.8414 33.1403 33.5447 33.5054C33.2707 33.8478 33.0995 34.1331 33.0311 34.3614H43.2343V38.6413H27.4159C27.3701 38.3901 27.3474 38.0706 27.3474 37.6827C27.3474 37.2946 27.3474 37.0206 27.3474 36.8609C27.3474 35.7652 27.5186 34.7608 27.8609 33.8478C28.2262 32.9349 28.6942 32.0901 29.2648 31.3141C29.8353 30.5151 30.4746 29.7734 31.1822 29.0886C31.9126 28.4038 32.6317 27.7191 33.3393 27.0343C33.887 26.5092 34.4006 26.0185 34.88 25.562C35.3593 25.0825 35.7817 24.626 36.1468 24.1925C36.5121 23.7358 36.7974 23.2908 37.0027 22.8571C37.2082 22.4005 37.3109 21.944 37.3109 21.4875C37.3109 20.4831 37.0255 19.7755 36.455 19.3647C35.8844 18.9538 35.1767 18.7484 34.3322 18.7484C33.7159 18.7484 33.1338 18.8511 32.5859 19.0566C32.061 19.2392 31.5703 19.4675 31.1136 19.7413C30.6801 19.9924 30.3033 20.255 29.9838 20.5288C29.6642 20.7799 29.4246 20.9854 29.2648 21.145L26.7311 17.5843C27.7355 16.6483 28.8996 15.8838 30.2234 15.2902C31.5703 14.6739 33.0083 14.3658 34.5377 14.3658C35.9299 14.3658 37.1283 14.5255 38.1327 14.8451C39.1371 15.1647 39.9588 15.6212 40.5979 16.2147C41.2599 16.7853 41.7392 17.4929 42.0359 18.3375C42.3556 19.1593 42.5152 20.0951 42.5152 21.145ZM55.9151 21.145C55.0249 22.3093 54.0776 23.5761 53.0733 24.9457C52.0689 26.3152 51.2244 27.7191 50.5395 29.1571H55.9151V21.145ZM60.914 14.9136V29.1571H63.4477V33.3343H60.914V38.6413H55.9151V33.3343H45.6776V29.6022C46.1798 28.5978 46.8075 27.4678 47.5608 26.2125C48.314 24.9342 49.1471 23.6331 50.0602 22.3093C50.996 20.9624 51.9776 19.6501 53.0047 18.3718C54.032 17.0935 55.0592 15.9407 56.0863 14.9136H60.914Z" fill="white"/>
</g>
<defs>
<clipPath id="clip0">
<rect width="90" height="90" rx="45" fill="white"/>
</clipPath>
</defs>
</svg>
