<svg width="101" height="101" viewBox="0 0 101 101" fill="none" xmlns="http://www.w3.org/2000/svg">
<g clip-path="url(#clip0)">
<rect width="101" height="101" rx="50.5" fill="#5CCBFF"/>
<path d="M50.5 100.177C77.9356 100.177 100.177 77.9355 100.177 50.4999C100.177 23.0643 77.9356 0.823242 50.5 0.823242C23.0642 0.823242 0.823288 23.0643 0.823288 50.4999C0.823288 77.9355 23.0642 100.177 50.5 100.177Z" stroke="white" stroke-width="2"/>
<path d="M51.433 57.1966C29.784 44.6815 12.3688 53.519 6.36734 59.5022C7.73963 69.2727 14.9853 79.263 18.9375 82.9406C22.8896 86.6184 29.6961 91.4488 37.2711 93.7543C42.9799 95.1266 55.4951 99.0238 73.719 88.9787C88.2982 80.9427 93.5532 65.5403 94.3582 58.8434C89.3996 62.5576 73.8726 67.4284 51.433 57.1966Z" fill="white"/>
<path d="M28.5017 82.2271C27.9915 81.1447 27.4877 80.0185 26.99 78.849C26.4923 77.6795 26.0195 76.5223 25.5716 75.3777C25.1237 74.2329 24.7069 73.1381 24.3211 72.093C23.948 71.048 23.6244 70.1148 23.3507 69.2935H26.5607C26.8096 70.0401 27.0771 70.8489 27.3632 71.7198C27.6618 72.5783 27.9605 73.4368 28.2591 74.2953C28.5701 75.1538 28.8688 75.9748 29.1549 76.7588C29.4411 77.5426 29.7085 78.2207 29.9575 78.7931C30.1938 78.2207 30.455 77.5426 30.7413 76.7588C31.0399 75.9748 31.3384 75.1538 31.637 74.2953C31.948 73.4368 32.2467 72.5783 32.533 71.7198C32.8314 70.8489 33.1052 70.0401 33.354 69.2935H36.4521C36.166 70.1148 35.8362 71.048 35.463 72.093C35.0897 73.1381 34.6792 74.2329 34.2312 75.3777C33.7833 76.5223 33.3105 77.6795 32.8128 78.849C32.3151 80.0185 31.8113 81.1447 31.3011 82.2271H28.5017ZM40.0968 75.7509C40.0968 76.3855 40.1715 76.9579 40.3208 77.4679C40.4825 77.9781 40.7065 78.4197 40.9926 78.7931C41.2912 79.1539 41.6521 79.4339 42.075 79.633C42.498 79.832 42.9833 79.9314 43.5308 79.9314C44.0658 79.9314 44.5448 79.832 44.9678 79.633C45.4033 79.4339 45.7641 79.1539 46.0503 78.7931C46.3489 78.4197 46.5728 77.9781 46.7222 77.4679C46.8839 76.9579 46.9648 76.3855 46.9648 75.7509C46.9648 75.1163 46.8839 74.5441 46.7222 74.0339C46.5728 73.5115 46.3489 73.0697 46.0503 72.7089C45.7641 72.3357 45.4033 72.0494 44.9678 71.8504C44.5448 71.6513 44.0658 71.5517 43.5308 71.5517C42.9833 71.5517 42.498 71.6574 42.075 71.869C41.6521 72.0681 41.2912 72.3543 40.9926 72.7275C40.7065 73.0883 40.4825 73.5301 40.3208 74.0527C40.1715 74.5628 40.0968 75.1289 40.0968 75.7509ZM49.9696 75.7509C49.9696 76.8584 49.8015 77.835 49.4656 78.6811C49.1421 79.5147 48.6942 80.2177 48.122 80.7899C47.5496 81.35 46.8652 81.7729 46.0691 82.059C45.2851 82.3453 44.4391 82.4883 43.5308 82.4883C42.6474 82.4883 41.8138 82.3453 41.03 82.059C40.2461 81.7729 39.5619 81.35 38.9769 80.7899C38.3922 80.2177 37.9319 79.5147 37.596 78.6811C37.2599 77.835 37.0921 76.8584 37.0921 75.7509C37.0921 74.6436 37.2662 73.6731 37.6147 72.8395C37.9629 71.9934 38.4296 71.2843 39.0144 70.7119C39.6115 70.1397 40.2959 69.7104 41.0673 69.4241C41.8511 69.138 42.6723 68.9949 43.5308 68.9949C44.4142 68.9949 45.2478 69.138 46.0316 69.4241C46.8156 69.7104 47.4998 70.1397 48.0845 70.7119C48.6695 71.2843 49.1297 71.9934 49.4656 72.8395C49.8015 73.6731 49.9696 74.6436 49.9696 75.7509ZM55.3079 79.8569C55.4448 79.8693 55.6003 79.8818 55.7745 79.8942C55.9611 79.8942 56.1788 79.8942 56.4277 79.8942C57.8834 79.8942 58.9596 79.5271 59.6565 78.7931C60.3656 78.0589 60.7203 77.0449 60.7203 75.7509C60.7203 74.3949 60.3842 73.3683 59.7124 72.6716C59.0406 71.9747 57.9768 71.6264 56.521 71.6264C56.3219 71.6264 56.1166 71.6327 55.9052 71.6451C55.6937 71.6451 55.4946 71.6574 55.3079 71.6823V79.8569ZM63.7251 75.7509C63.7251 76.8708 63.5508 77.8475 63.2025 78.6811C62.854 79.5147 62.3563 80.2052 61.7094 80.7527C61.0749 81.3002 60.2972 81.7108 59.3765 81.9843C58.4558 82.2581 57.423 82.395 56.2784 82.395C55.7558 82.395 55.1462 82.3701 54.4494 82.3204C53.7527 82.283 53.0684 82.1959 52.3965 82.059V69.4616C53.0684 69.3371 53.7651 69.2563 54.4867 69.219C55.2209 69.1692 55.8492 69.1443 56.3717 69.1443C57.4791 69.1443 58.4807 69.2686 59.3765 69.5175C60.2848 69.7663 61.0623 70.1583 61.7094 70.6932C62.3563 71.2282 62.854 71.9126 63.2025 72.7462C63.5508 73.5798 63.7251 74.5814 63.7251 75.7509ZM74.3426 82.2271C74.2059 81.7792 74.0502 81.3188 73.8761 80.846C73.7143 80.3732 73.5525 79.9004 73.3908 79.4277H68.3517C68.1901 79.9004 68.0221 80.3732 67.8478 80.846C67.6862 81.3188 67.5368 81.7792 67.3999 82.2271H64.3765C64.8618 80.8336 65.3223 79.5459 65.7576 78.3638C66.1931 77.1818 66.6161 76.0682 67.0267 75.0232C67.4499 73.978 67.8603 72.9889 68.2584 72.0557C68.669 71.1101 69.0922 70.1895 69.5275 69.2935H72.3083C72.7315 70.1895 73.1482 71.1101 73.5588 72.0557C73.9694 72.9889 74.3799 73.978 74.7905 75.0232C75.2137 76.0682 75.6429 77.1818 76.0782 78.3638C76.5138 79.5459 76.9742 80.8336 77.4593 82.2271H74.3426ZM70.8525 72.2237C70.7905 72.4102 70.6972 72.6654 70.5727 72.9889C70.4484 73.3125 70.3052 73.6856 70.1434 74.1086C69.9817 74.5316 69.8013 74.9981 69.6022 75.5083C69.4156 76.0186 69.2228 76.5535 69.0236 77.1134H72.7003C72.5013 76.5535 72.3083 76.0186 72.1217 75.5083C71.9352 74.9981 71.7547 74.5316 71.5804 74.1086C71.4188 73.6856 71.2757 73.3125 71.1512 72.9889C71.0269 72.6654 70.9272 72.4102 70.8525 72.2237Z" fill="#5CCBFF"/>
<path d="M47.7115 23.7294C47.7115 24.703 47.5195 25.6378 47.1353 26.5345C46.751 27.4311 46.2516 28.302 45.6367 29.1472C45.022 29.9671 44.3303 30.7611 43.5618 31.5296C42.7933 32.2981 42.0378 33.0281 41.2949 33.7197C40.9106 34.0785 40.4879 34.4882 40.0268 34.9493C39.5913 35.3848 39.1687 35.8331 38.7589 36.2942C38.349 36.7553 37.9776 37.1908 37.6446 37.6006C37.3371 37.9847 37.145 38.305 37.0682 38.5611H48.5185V43.3642H30.7667C30.7153 43.0823 30.6899 42.7237 30.6899 42.2884C30.6899 41.8528 30.6899 41.5453 30.6899 41.3661C30.6899 40.1365 30.882 39.0093 31.2661 37.9847C31.676 36.9603 32.2012 36.0123 32.8415 35.1414C33.4818 34.2448 34.1993 33.4124 34.9934 32.6439C35.813 31.8754 36.62 31.107 37.4141 30.3385C38.0288 29.7492 38.6052 29.1986 39.1431 28.6863C39.681 28.1482 40.155 27.6359 40.5647 27.1493C40.9746 26.6368 41.2949 26.1374 41.5253 25.6507C41.7558 25.1384 41.8711 24.6261 41.8711 24.1138C41.8711 22.9866 41.5509 22.1925 40.9106 21.7316C40.2703 21.2704 39.476 21.0399 38.5284 21.0399C37.8367 21.0399 37.1835 21.1552 36.5686 21.3857C35.9795 21.5907 35.4289 21.8468 34.9164 22.1542C34.4299 22.4359 34.007 22.7306 33.6485 23.0379C33.2898 23.3197 33.0209 23.5503 32.8415 23.7294L29.9982 19.7335C31.1254 18.6831 32.4318 17.8251 33.9174 17.159C35.4289 16.4674 37.0426 16.1216 38.7589 16.1216C40.3213 16.1216 41.6662 16.3009 42.7933 16.6595C43.9205 17.0182 44.8426 17.5305 45.5599 18.1966C46.3027 18.8369 46.8407 19.6309 47.1736 20.5788C47.5323 21.501 47.7115 22.5512 47.7115 23.7294ZM62.7492 23.7294C61.7502 25.036 60.6871 26.4577 59.56 27.9946C58.4328 29.5315 57.4852 31.107 56.7165 32.7207H62.7492V23.7294ZM68.3591 16.7364V32.7207H71.2024V37.4085H68.3591V43.3642H62.7492V37.4085H51.2605V33.2203C51.824 32.0931 52.5284 30.825 53.3738 29.4163C54.2191 27.9817 55.154 26.5216 56.1786 25.036C57.2289 23.5245 58.3305 22.0518 59.4831 20.6172C60.6359 19.1827 61.7887 17.889 62.9413 16.7364H68.3591Z" fill="white"/>
</g>
<defs>
<clipPath id="clip0">
<rect width="101" height="101" rx="50.5" fill="white"/>
</clipPath>
</defs>
</svg>
