<svg width="24" height="20" viewBox="0 0 24 20" fill="none" xmlns="http://www.w3.org/2000/svg">
<path d="M18.9236 12.1607H15.9369C17.2667 10.1301 17.9642 8.04938 17.9642 6.08367C17.9642 2.79496 15.2887 0.119385 12 0.119385C8.71125 0.119385 6.03567 2.79496 6.03567 6.08367C6.03567 8.04938 6.73322 10.1301 8.06297 12.1607H5.07633L0 19.8806H24L18.9236 12.1607ZM7.46259 6.08372C7.46255 3.58167 9.49805 1.54621 12 1.54621C14.502 1.54621 16.5375 3.58172 16.5375 6.08367C16.5375 8.58413 15.2016 10.8508 14.0809 12.3121C14.0449 12.3589 14.009 12.4047 13.9731 12.4506C13.9365 12.4973 13.8998 12.5434 13.8632 12.5891C13.8515 12.6037 13.8398 12.6183 13.8282 12.6328C13.7917 12.6779 13.7554 12.7225 13.7191 12.7666C13.7074 12.7807 13.6958 12.7949 13.6842 12.8089C13.6479 12.8527 13.6117 12.8959 13.5757 12.9386C13.5643 12.952 13.5529 12.9654 13.5416 12.9788C13.5053 13.0215 13.4692 13.0636 13.4332 13.1052C13.4224 13.1176 13.4117 13.1299 13.401 13.1422C13.3647 13.1839 13.3286 13.225 13.2927 13.2655C13.2825 13.2769 13.2725 13.2882 13.2624 13.2996C13.226 13.3404 13.1898 13.3807 13.1539 13.4202C13.145 13.43 13.1362 13.4397 13.1273 13.4494C13.0906 13.4896 13.054 13.5294 13.0179 13.5683C13.0103 13.5765 13.0027 13.5846 12.9952 13.5927C12.9581 13.6326 12.9212 13.6718 12.8849 13.7101C12.8791 13.7162 12.8735 13.7221 12.8678 13.7281C12.8299 13.7679 12.7925 13.807 12.7556 13.8451C12.7521 13.8488 12.7487 13.8522 12.7452 13.8558C12.7064 13.8958 12.6681 13.9351 12.6306 13.9731C12.6297 13.974 12.6289 13.9748 12.6281 13.9756C12.3874 14.2194 12.1729 14.4228 12.0002 14.5807C10.778 13.4623 7.46259 10.061 7.46259 6.08372ZM5.84587 13.5876H9.1088C10.1577 14.8782 11.1418 15.7395 11.4539 16.0011C11.454 16.0012 11.4541 16.0013 11.4542 16.0014C11.4655 16.0108 11.476 16.0196 11.4855 16.0275C11.4862 16.028 11.4867 16.0284 11.4874 16.029C11.5059 16.0443 11.5212 16.0569 11.5324 16.0659C11.5333 16.0667 11.5338 16.0671 11.5347 16.0679C11.5437 16.0751 11.5501 16.0803 11.5535 16.083C11.5538 16.0833 11.5546 16.0839 11.5549 16.0841L11.555 16.0842H11.555L11.5555 16.0846L12.0001 16.4396L12.4448 16.0846L12.4453 16.0842H12.4453L12.4454 16.0841C12.4457 16.0839 12.4464 16.0833 12.4468 16.083C12.4501 16.0803 12.4566 16.0752 12.4656 16.0679C12.4664 16.0672 12.4669 16.0667 12.4679 16.0659C12.4791 16.0569 12.4943 16.0443 12.5129 16.029C12.5136 16.0284 12.5141 16.028 12.5148 16.0275C12.5243 16.0196 12.5347 16.0108 12.5461 16.0014C12.5462 16.0013 12.5463 16.0012 12.5464 16.0011C12.8586 15.7394 13.8426 14.8782 14.8915 13.5876H18.1544L21.3543 18.4537H2.646L5.84587 13.5876Z" fill="white"/>
</svg>
